<?xml version="1.0" encoding="utf-8"?>
<!-- Generator: Adobe Illustrator 26.2.1, SVG Export Plug-In . SVG Version: 6.00 Build 0)  -->
<svg version="1.1" id="Layer_1" xmlns="http://www.w3.org/2000/svg" xmlns:xlink="http://www.w3.org/1999/xlink" x="0px" y="0px"
	 viewBox="0 0 195.5 194.1" style="enable-background:new 0 0 195.5 194.1;" xml:space="preserve">
<style type="text/css">
	.st0{fill:#AFCC96;}
</style>
<g>
	<path class="st0" d="M97.7,46.5c-2.3,3.8-5.5,7-9.4,9.1c-3.1,1.6-6.6,2.5-10,2.1c-1.2-0.2-2.6-0.6-3.2-1.7
		c-0.6-0.9-0.4-2.2,0.1-3.2c0.8-1.5,2.4-2.5,4-2.9c1.7-0.4,3.4-0.2,5,0.2c3.7,0.9,7.2,3.2,8.5,6.8c1.4,4.2-0.7,8.7-3.1,12.4
		c-3.3,4.8-7.4,9.2-12.6,12c-5,2.7-10.8,3.6-16.3,2.2c-2.6-0.7-5.7-2.9-3.7-5.9c4.9-7.2,15.1-5.6,20.8-0.6c3.4,3,5.3,7,4.3,11.6
		c-1.5,6.5-7,12.2-11.4,16.9c-4.7,5.1-10,9.7-16.1,13.1c-1.6,0.9-3.2,1.7-5,2c-2,0.4-4.2,0.1-5.8-1.3c-3.1-2.7-1.8-7.3,0.7-9.8
		c2.7-2.8,6.7-4.2,10.5-4.1c5,0.1,9.8,2.3,13.9,5.2c4.6,3.3,8.9,7.3,12.6,11.4c1.2,1.3,2.4,2.8,3,4.5c0.2,0.5,0.1,1.3-0.5,1.3
		c-0.2,0-0.4-0.2-0.6-0.4c-2.8-3-6.2-5.3-9.6-7.4s-6.9-4.3-10.6-5.8c-4.6-1.9-11.8-4.1-16.5-1.5c-0.8,0.4-1.5,1.2-1.7,2.1
		c-0.3,1.2,0.5,2.5,1.5,3.2c2.9,1.8,6.2-0.4,8.5-2.2c4.3-3.4,8.2-7.2,11.6-11.4c2.6-3.1,5-6.6,6.5-10.5c1.5-3.6,2.8-8.6,1-12.3
		c-1.7-3.7-6.2-5.3-10-5.3c-1.2,0-2.4,0.2-3.3,0.9c-1.5,1.1-2.2,3.8,0,4.6c0.8,0.3,1.6,0.2,2.4,0c3.3-0.8,6.2-2.5,9.2-4.1
		c4-2.1,8.5-5.6,10.3-8.2c1.4-2.1,2.6-4,3-5.6c0.9-3.3,2.2-6.9-0.8-9.6c-1.8-1.6-4.7-2-6.8-0.8c-0.4,0.2-0.8,0.5-0.7,0.9
		c0,0.7,0.9,0.8,1.6,0.7c2.4-0.3,4.6-1.4,6.7-2.7c8-4.9,14-13,16.4-22.1c0,5-1,10.1-3.3,14.6C98.3,45.4,98,45.9,97.7,46.5z"/>
	<g>
		<path class="st0" d="M107.1,123.6l-4.3-73.7l-8.5,73.8c-34,3.7-48.5,30-48.5,30s18-21,54.9-21.5c25.4-0.3,47.6,17.6,47.6,17.6
			S133.1,126.5,107.1,123.6z"/>
		<path class="st0" d="M104.1,29c3.5,1.8,7.1,3.6,10.3,5.9c3.2,2.3,6.1,5.1,8.1,8.6c0.9,1.5,1.6,3.2,1.9,4.9s0.1,3.6-0.8,5.2
			c-0.9,1.6-2.4,2.8-4.1,3s-3.9-0.6-4.5-2.2c-0.7-1.9-0.4-4.2,1.3-5.3c6.8-4.4,11.2-3.4,15.9,0c3.9,2.8,7.1,6.4,8.6,11
			c3.6,11.1-3.9,22.5-14.6,25.9c-0.5,0.2-2.1-0.2-2.6-0.4c-0.9-0.4-1.7-1.6-1.7-2.6c-0.2-7,5.8-12.5,12-15.1
			c0.2-0.1,0.4-0.2,0.6-0.2c2.9-1.1,6.4-2.1,9.2-0.6c7.4,3.9,9.9,13.5,9.1,20.6c-1,9.1-6,16.3-12.4,22.7c-6.7,6.7-13.6,12.1-22.7,15
			c-0.8,0.2-2.3,1-2.9,0.4c15.8-6.4,27.5-16.5,32.1-32.1c1.7-6,1.3-14.6-4.7-19.7c-2.1-1.8-5.3-2.1-8-1.2c-2.2,0.7-4.5,1.6-6.3,3.1
			c-1.9,1.5-3.5,4.2-2.8,6.7c0.1,0.4,0.3,0.9,0.8,1.1c1.1,0.5,2.7-0.9,3.5-1.6c1.1-0.9,2-2,2.8-3.1c1.4-2.1,2.6-4.4,3.5-6.7
			c0.9-2.3,1-3,1-7.3c0-3.8-1.8-7.4-4.2-10.5c-2.1-2.7-5.1-4.9-8.6-5c-0.2,0-0.4,0-0.5,0c-2,0.1-4.7,0.7-5.7,2.7
			c-0.4,0.8-0.2,1.9,0.6,2.2c0.6,0.2,1.2,0,1.6-0.5c0.4-0.4,0.6-1,0.7-1.6c0.6-2.7,0.1-5.5-1-8c-1.2-2.5-2.9-4.7-4.8-6.6
			C111.2,34.4,107.7,31.7,104.1,29z"/>
		<g>
			<g>
				<path class="st0" d="M73.8,146.8l-0.1,0.1c-0.9,0-1.4,0.2-1.5,0.7c-0.1,0.3-0.1,0.8-0.1,1.7c0,0.6,0,1.6,0,2.8v3.4
					c0,2.2-0.4,3.7-1.3,4.7c-1.1,1.2-2.8,1.9-4.9,1.9c-1.9,0-3.4-0.3-4.5-1c-0.9-0.5-1.5-1.3-1.8-2.3c-0.2-0.6-0.3-2.3-0.3-5V151
					c0-1.7,0-2.9-0.1-3.4c0-0.2-0.2-0.4-0.4-0.4c-0.1,0-0.5-0.1-1.3-0.1l-0.1-0.1v-0.7l0.1-0.1c0.7,0,1.8,0.1,3.4,0.1
					c1.6,0,2.7,0,3.4-0.1l0.1,0.1v0.7l-0.1,0.1c-0.7,0-1.2,0.1-1.3,0.1c-0.2,0.1-0.3,0.2-0.4,0.4c-0.1,0.5-0.1,1.7-0.1,3.4v2.3
					c0,2.8,0.1,4.5,0.4,5.1c0.5,1.2,1.7,1.9,3.7,1.9c1.3,0,2.3-0.3,3-0.9c0.3-0.3,0.6-0.6,0.7-0.9c0.1-0.3,0.2-0.8,0.3-1.4
					c0.1-0.6,0.1-1.2,0.1-1.8V153c0-1.9,0-3.2,0-3.9s-0.1-1.1-0.1-1.3c-0.1-0.1-0.2-0.3-0.4-0.3c-0.2-0.1-0.6-0.1-1.4-0.2l-0.1-0.1
					v-0.7l0.1-0.1c0.6,0,1.3,0.1,2,0.1c0.5,0,1.5,0,2.9-0.1l0.1,0.1V146.8z"/>
				<path class="st0" d="M88.9,161.5l-0.1,0.1c-0.5,0-1.1,0-1.8,0c-0.7,0-1.3,0-1.9,0c-0.4-0.8-1.4-2-3-3.7
					c-0.8-0.9-1.4-1.5-1.6-1.6l0.1,3.8c0,0.3,0.1,0.5,0.2,0.5c0.2,0.1,0.6,0.1,1.3,0.2l0.1,0.1v0.7l-0.1,0.1c-0.7-0.1-1.7-0.1-3-0.1
					s-2.3,0-3,0.1l-0.1-0.1v-0.7l0.1-0.1c0.7,0,1.1-0.1,1.3-0.2c0.1-0.1,0.2-0.2,0.2-0.5c0.1-1,0.1-2.6,0.1-5v-3.7
					c0-1.5,0-2.8-0.1-3.8c0-0.3-0.1-0.5-0.2-0.5c-0.1-0.1-0.6-0.1-1.3-0.2l-0.1-0.1v-0.6l0.1-0.1c1.4-0.2,2.8-0.5,4.3-0.9l0.2,0.1
					c0,0.2,0,0.6,0,1.1c-0.1,1.8-0.1,3.7-0.1,5.8v3.6l1.1-0.9c0.5-0.4,1.1-1,2-2l1.1-1.2c0.2-0.2,0.4-0.4,0.5-0.6c0.6,0,1.1,0,1.5,0
					c0.5,0,0.9,0,1.3,0l0.1,0.1v0.7L88,152h-0.8c-0.3,0-0.7,0.1-1,0.4c-0.1,0.1-0.4,0.3-0.8,0.7l-0.9,0.8l-0.3,0.3l-0.9,0.8l2.4,2.8
					c1.5,1.8,2.4,2.7,2.7,2.8c0.2,0.1,0.3,0.1,0.5,0.1l0.1,0.1L88.9,161.5L88.9,161.5z"/>
				<path class="st0" d="M98.8,150.9l-0.1,2c0,0.3,0,0.7,0,1.1l-0.5,0.1c-0.3-0.5-0.8-0.8-1.4-0.8s-1,0.2-1.4,0.7
					c-0.2,0.3-0.3,0.7-0.3,1.2v2.6c0,0.5,0,1.3,0.1,2.2c0,0.3,0.1,0.4,0.2,0.5s0.7,0.1,1.5,0.2l0.1,0.1v0.7l-0.1,0.1
					c-1.1,0-2.2-0.1-3.2-0.1c-1.3,0-2.3,0-3,0.1l-0.1-0.1v-0.7l0.1-0.1c0.7,0,1.1-0.1,1.3-0.2c0.1-0.1,0.2-0.2,0.2-0.5
					c0.1-1,0.1-2,0.1-3.1v-1.6c0-1.5-0.1-2.3-0.2-2.5c-0.1-0.1-0.2-0.2-0.5-0.3c-0.1,0-0.4,0-1-0.1l-0.1-0.1v-0.6l0.1-0.1
					c1.3-0.1,2.7-0.4,4.2-0.9l0.2,0.1v2.2c0.5-0.5,1-1.1,1.7-1.9c0.3-0.3,0.7-0.4,1.2-0.4C98.3,150.7,98.6,150.8,98.8,150.9z"/>
				<path class="st0" d="M112.4,156.4c0,1.2-0.3,2.3-1,3.2c-0.6,0.8-1.4,1.4-2.4,1.8c-0.9,0.4-2,0.6-3.2,0.6c-1.5,0-3.1-0.4-4.5-1.1
					l-0.1-0.2c0.2-0.8,0.3-2,0.3-3.6l0.1-0.1h0.7l0.1,0.1v0.3c0,0.4,0,1,0.1,1.6c0.3,0.5,0.7,0.9,1.4,1.2c0.7,0.4,1.5,0.5,2.2,0.5
					c1.5,0,2.5-0.5,3-1.5c0.3-0.5,0.4-1.1,0.4-1.6c0-0.9-0.4-1.6-1.2-2c-0.4-0.2-1-0.4-1.9-0.5c-2-0.3-3.3-0.7-3.9-1.1
					c-0.9-0.7-1.4-1.8-1.4-3.2c0-1.5,0.5-2.7,1.5-3.6c1.1-0.9,2.6-1.4,4.5-1.4c1.7,0,3.1,0.3,4.2,0.8l0.1,0.3
					c-0.2,0.9-0.3,1.9-0.3,3.2l-0.1,0.1h-0.7l-0.1-0.1c0-0.9-0.1-1.5-0.1-1.7c-0.2-0.3-0.6-0.6-1.2-0.9c-0.6-0.3-1.2-0.4-1.9-0.4
					c-1,0-1.8,0.3-2.3,0.8s-0.8,1.1-0.8,1.9c0,0.8,0.3,1.5,0.9,1.9c0.4,0.3,1.3,0.5,2.8,0.7c0.2,0,0.6,0.1,1.3,0.2
					c0.4,0.1,0.8,0.2,1.2,0.3c0.7,0.3,1.3,0.7,1.7,1.3C112.2,154.7,112.4,155.5,112.4,156.4z"/>
				<path class="st0" d="M125.2,161.4l-0.1,0.1c-0.6,0-1.3-0.1-2.1-0.1c-0.6,0-1.2,0-1.8,0.1l-0.1-0.1l0.1-1.5l-2.1,1.6
					c-0.2,0.1-0.4,0.2-0.7,0.2c-0.1,0-0.3,0-0.4,0c-0.8,0-1.4-0.2-1.9-0.7c-0.4-0.5-0.7-1.2-0.7-2c0-1.1,0.4-2,1.1-2.4
					c0.8-0.5,2.4-1,4.8-1.4c0-1.2-0.3-2-0.9-2.3c-0.4-0.2-0.8-0.4-1.3-0.4c-0.6,0-1,0.1-1.4,0.4l-0.4,1L117,154l-0.6-0.1l-0.1-0.2
					l0.1-1.3c1.2-0.9,2.1-1.4,2.7-1.5c0.3-0.1,0.6-0.1,1-0.1c1.4,0,2.5,0.4,3.1,1.1c0.4,0.6,0.7,1.4,0.7,2.5c0,0.3,0,0.7,0,1.3
					c0,1-0.1,1.7-0.1,2.1c0,1.1,0,1.8,0.1,2.1c0,0.3,0.1,0.5,0.3,0.6c0.1,0.1,0.5,0.1,1,0.1l0.1,0.1L125.2,161.4L125.2,161.4z
					 M121.2,158.9v-2.7c-1.2,0.3-2,0.6-2.5,0.9c-0.4,0.3-0.6,0.8-0.6,1.4c0,1,0.4,1.5,1.3,1.5C120.1,159.9,120.7,159.6,121.2,158.9z
					"/>
				<path class="st0" d="M139.9,161.5l-0.1,0.1c-0.7-0.1-1.4-0.1-2-0.1s-1.3,0-2.2,0.1l-0.1-0.1c0-0.4,0-1,0-1.8
					c-0.3,0.2-0.6,0.6-1.1,1c-0.6,0.6-1,0.9-1.2,1s-0.6,0.2-1.1,0.2c-1.3,0-2.3-0.5-3-1.4c-0.8-0.9-1.2-2.2-1.2-3.7s0.3-2.6,0.9-3.4
					c0.2-0.2,0.6-0.6,1.4-1.1c0.9-0.6,1.5-1,1.9-1.2c0.4-0.1,0.8-0.2,1.3-0.2c0.8,0,1.5,0.2,2.1,0.5v-0.6c0-1.9,0-3.1-0.1-3.4
					c-0.1-0.2-0.2-0.3-0.5-0.4c-0.1,0-0.5,0-1-0.1l-0.1-0.1v-0.6l0.1-0.1c1.4-0.1,2.8-0.5,4.3-0.9l0.2,0.1c0,0,0,0.4,0,1.1
					c-0.1,1.6-0.1,4-0.1,7.1v3.6c0,2.1,0,3.2,0.1,3.4c0.1,0.1,0.1,0.2,0.2,0.2c0.2,0.1,0.5,0.1,1.1,0.1l0.1,0.1v0.6H139.9z
					 M135.5,155.7v-2.1c-0.5-0.6-1-1-1.5-1.2c-0.3-0.1-0.7-0.2-1.1-0.2c-1,0-1.7,0.5-2,1.6c-0.2,0.6-0.2,1.2-0.2,1.9
					c0,1.5,0.4,2.7,1.1,3.4c0.4,0.4,0.9,0.6,1.5,0.6c0.5,0,1-0.2,1.5-0.5c0.4-0.3,0.6-0.6,0.7-0.9
					C135.5,158.2,135.5,157.3,135.5,155.7z"/>
			</g>
		</g>
	</g>
</g>
</svg>
