<?xml version="1.0" encoding="utf-8"?>
<!-- Generator: Adobe Illustrator 26.2.1, SVG Export Plug-In . SVG Version: 6.00 Build 0)  -->
<svg version="1.1" id="Layer_1" xmlns="http://www.w3.org/2000/svg" xmlns:xlink="http://www.w3.org/1999/xlink" x="0px" y="0px"
	 viewBox="0 0 195.5 194.1" style="enable-background:new 0 0 195.5 194.1;" xml:space="preserve">
<style type="text/css">
	.st0{fill:#FFFFFF;}
	.st1{fill:#AFCC96;}
	.st2{fill:#AFCC96;stroke:#AFCC96;stroke-miterlimit:10;}
	.st3{fill:none;stroke:#AFCC96;stroke-miterlimit:10;}
	.st4{fill:#597C35;}
	.st5{fill:#F7FAF3;}
	.st6{fill:#AFCC96;stroke:#AFCC96;stroke-width:0.25;stroke-miterlimit:10;}
</style>
<circle class="st0" cx="97.7" cy="97.5" r="95.5"/>
<rect x="-894.8" y="19.5" class="st0" width="268.5" height="153"/>
<rect x="-1179.8" y="19" class="st1" width="270" height="153"/>
<g>
	<path class="st0" d="M-1040.5,110.6l-2.8-47.9l-5.5,48c-22.1,2.4-31.6,19.5-31.6,19.5s11.7-13.7,35.7-13.9
		c16.5-0.2,31,11.4,31,11.4S-1023.6,112.5-1040.5,110.6z"/>
	<path class="st0" d="M-1042.5,49.1c2.3,1.2,4.6,2.4,6.7,3.9c2.1,1.5,4,3.3,5.3,5.6c0.6,1,1,2.1,1.2,3.2c0.2,1.1,0,2.3-0.5,3.4
		s-1.6,1.8-2.7,2c-1.1,0.2-2.5-0.4-2.9-1.5c-0.5-1.2-0.2-2.7,0.8-3.4c4.4-2.9,7.3-2.2,10.3,0c2.5,1.8,4.6,4.2,5.6,7.1
		c2.3,7.2-2.5,14.6-9.5,16.9c-0.3,0.1-1.4-0.1-1.7-0.3c-0.6-0.3-1.1-1-1.1-1.7c-0.1-4.6,3.8-8.2,7.8-9.8c0.1-0.1,0.3-0.1,0.4-0.2
		c1.9-0.7,4.2-1.3,6-0.4c4.8,2.5,6.4,8.7,5.9,13.4c-0.7,5.9-3.9,10.6-8.1,14.8c-4.4,4.4-8.9,7.9-14.8,9.8c-0.5,0.2-1.5,0.6-1.9,0.3
		c10.2-4.2,17.9-10.7,20.8-20.9c1.1-3.9,0.8-9.5-3.1-12.8c-1.4-1.2-3.4-1.4-5.2-0.8c-1.4,0.5-2.9,1-4.1,2c-1.2,1-2.2,2.7-1.8,4.4
		c0.1,0.3,0.2,0.6,0.5,0.7c0.7,0.3,1.8-0.6,2.2-1c0.7-0.6,1.3-1.3,1.8-2c0.9-1.3,1.7-2.8,2.3-4.4c0.6-1.5,0.7-2,0.7-4.8
		c0-2.5-1.2-4.8-2.7-6.8c-1.3-1.7-3.3-3.2-5.6-3.2c-0.1,0-0.2,0-0.3,0c-1.3,0.1-3.1,0.5-3.7,1.7c-0.3,0.5-0.1,1.2,0.4,1.4
		c0.4,0.1,0.8,0,1-0.3c0.3-0.3,0.4-0.7,0.5-1c0.4-1.7,0.1-3.6-0.7-5.2c-0.8-1.6-1.9-3-3.1-4.3C-1037.8,52.6-1040.2,50.8-1042.5,49.1
		z"/>
	<path class="st0" d="M-1046.7,60.4c-1.5,2.5-3.6,4.5-6.1,5.9c-2,1-4.3,1.6-6.5,1.3c-0.8-0.1-1.7-0.4-2.1-1.1
		c-0.4-0.6-0.3-1.4,0.1-2.1c0.5-1,1.5-1.6,2.6-1.9c1.1-0.3,2.2-0.1,3.3,0.1c2.4,0.6,4.7,2.1,5.5,4.4c0.9,2.7-0.4,5.7-2,8
		c-2.1,3.1-4.8,6-8.2,7.8c-3.2,1.7-7,2.4-10.6,1.4c-1.7-0.5-3.7-1.9-2.4-3.8c3.2-4.7,9.8-3.6,13.5-0.4c2.2,2,3.5,4.6,2.8,7.6
		c-1,4.2-4.6,7.9-7.4,11c-3.1,3.3-6.5,6.3-10.5,8.5c-1,0.6-2.1,1.1-3.3,1.3c-1.3,0.2-2.8,0.1-3.8-0.8c-2-1.8-1.2-4.7,0.5-6.4
		c1.8-1.8,4.3-2.7,6.8-2.7c3.3,0,6.4,1.5,9,3.4c3,2.1,5.8,4.7,8.2,7.4c0.8,0.9,1.6,1.8,2,2.9c0.1,0.3,0,0.8-0.3,0.8
		c-0.1,0-0.3-0.1-0.4-0.2c-1.8-1.9-4-3.4-6.2-4.8c-2.2-1.4-4.5-2.8-6.9-3.8c-3-1.2-7.7-2.6-10.7-1c-0.5,0.3-1,0.8-1.1,1.4
		c-0.2,0.8,0.3,1.6,1,2.1c1.9,1.1,4-0.3,5.5-1.4c2.8-2.2,5.3-4.7,7.6-7.4c1.7-2,3.2-4.3,4.3-6.8c1-2.4,1.8-5.6,0.7-8
		c-1.1-2.4-4-3.4-6.5-3.5c-0.8,0-1.5,0.2-2.2,0.6c-1,0.7-1.4,2.5,0,3c0.5,0.2,1.1,0.1,1.6,0c2.2-0.5,4-1.6,6-2.7
		c2.6-1.4,5.5-3.7,6.7-5.3c0.9-1.4,1.7-2.6,2-3.6c0.6-2.1,1.4-4.5-0.5-6.3c-1.2-1.1-3.1-1.3-4.5-0.5c-0.2,0.1-0.5,0.3-0.5,0.6
		c0,0.4,0.6,0.5,1,0.5c1.6-0.2,3-0.9,4.3-1.7c5.2-3.2,9.1-8.5,10.7-14.4c0,3.3-0.7,6.6-2.2,9.5
		C-1046.2,59.7-1046.5,60.1-1046.7,60.4z"/>
	<g>
		<g>
			<path class="st0" d="M-1062.2,125.7L-1062.2,125.7c-0.6,0.1-1,0.2-1,0.5c0,0.2-0.1,0.5-0.1,1.1c0,0.4,0,1,0,1.8v2.2
				c0,1.4-0.3,2.4-0.8,3c-0.7,0.8-1.8,1.2-3.2,1.2c-1.3,0-2.2-0.2-2.9-0.6c-0.6-0.4-1-0.9-1.2-1.5c-0.1-0.4-0.2-1.5-0.2-3.3v-1.9
				c0-1.1,0-1.9-0.1-2.2c0-0.1-0.1-0.2-0.2-0.3c-0.1,0-0.4,0-0.8-0.1l-0.1-0.1v-0.5l0.1-0.1c0.5,0,1.2,0,2.2,0c1,0,1.8,0,2.2,0
				l0.1,0.1v0.5l-0.1,0.1c-0.5,0-0.8,0.1-0.8,0.1c-0.1,0-0.2,0.1-0.2,0.3c-0.1,0.3-0.1,1.1-0.1,2.2v1.5c0,1.8,0.1,2.9,0.2,3.3
				c0.3,0.8,1.1,1.2,2.4,1.2c0.8,0,1.5-0.2,2-0.6c0.2-0.2,0.4-0.4,0.5-0.6c0.1-0.2,0.2-0.5,0.2-0.9c0-0.4,0.1-0.8,0.1-1.2v-1.5
				c0-1.3,0-2.1,0-2.6c0-0.4,0-0.7-0.1-0.8c0-0.1-0.1-0.2-0.3-0.2c-0.1,0-0.4-0.1-0.9-0.1l-0.1-0.1v-0.5l0.1-0.1c0.4,0,0.8,0,1.3,0
				c0.3,0,1,0,1.9,0l0.1,0.1V125.7z"/>
			<path class="st0" d="M-1052.4,135.2L-1052.4,135.2c-0.4,0.1-0.8,0-1.2,0c-0.4,0-0.8,0-1.3,0c-0.3-0.5-0.9-1.3-1.9-2.4
				c-0.5-0.6-0.9-0.9-1-1.1l0.1,2.5c0,0.2,0.1,0.3,0.2,0.3c0.1,0.1,0.4,0.1,0.9,0.1l0.1,0.1v0.4l-0.1,0.1c-0.5,0-1.1-0.1-2-0.1
				c-0.9,0-1.5,0-2,0.1l-0.1-0.1v-0.4l0.1-0.1c0.5,0,0.7-0.1,0.9-0.1c0.1,0,0.1-0.2,0.2-0.3c0-0.6,0.1-1.7,0.1-3.3v-2.4
				c0-1,0-1.8-0.1-2.4c0-0.2-0.1-0.3-0.2-0.3c-0.1-0.1-0.4-0.1-0.8-0.1l-0.1-0.1v-0.4l0.1-0.1c0.9-0.1,1.8-0.3,2.8-0.6l0.2,0.1
				c0,0.1,0,0.4,0,0.7c0,1.1-0.1,2.4-0.1,3.8v2.3l0.7-0.6c0.3-0.3,0.7-0.7,1.3-1.3l0.7-0.8c0.1-0.1,0.2-0.3,0.3-0.4c0.4,0,0.7,0,1,0
				c0.3,0,0.6,0,0.9,0l0.1,0.1v0.4l-0.1,0.1l-0.5,0c-0.2,0-0.4,0.1-0.7,0.3c-0.1,0.1-0.3,0.2-0.5,0.4l-0.6,0.5l-0.2,0.2l-0.6,0.5
				l1.5,1.8c1,1.1,1.6,1.8,1.8,1.9c0.1,0,0.2,0.1,0.3,0.1l0.1,0.1V135.2z"/>
			<path class="st0" d="M-1045.9,128.3l-0.1,1.3c0,0.2,0,0.5,0,0.7l-0.3,0.1c-0.2-0.3-0.5-0.5-0.9-0.5c-0.4,0-0.7,0.1-0.9,0.4
				c-0.1,0.2-0.2,0.4-0.2,0.8v1.7c0,0.3,0,0.8,0.1,1.5c0,0.2,0.1,0.3,0.2,0.3c0.1,0.1,0.4,0.1,1,0.1l0.1,0.1v0.4l-0.1,0.1
				c-0.7,0-1.4,0-2.1,0c-0.9,0-1.5,0-2,0.1l-0.1-0.1v-0.4l0.1-0.1c0.5,0,0.7-0.1,0.9-0.1c0.1,0,0.1-0.2,0.2-0.3c0-0.6,0.1-1.3,0.1-2
				v-1c0-1,0-1.5-0.1-1.6c0-0.1-0.2-0.2-0.3-0.2c-0.1,0-0.3,0-0.6,0l-0.1-0.1v-0.4l0.1-0.1c0.9-0.1,1.8-0.3,2.7-0.6l0.2,0.1l0,1.4
				c0.3-0.3,0.7-0.7,1.1-1.2c0.2-0.2,0.5-0.3,0.8-0.3C-1046.2,128.2-1046.1,128.2-1045.9,128.3z"/>
			<path class="st0" d="M-1037.1,131.9c0,0.8-0.2,1.5-0.7,2.1c-0.4,0.5-0.9,0.9-1.5,1.2c-0.6,0.2-1.3,0.4-2.1,0.4c-1,0-2-0.2-3-0.7
				l-0.1-0.2c0.1-0.5,0.2-1.3,0.2-2.3l0.1-0.1h0.5l0.1,0.1v0.2c0,0.3,0,0.6,0.1,1.1c0.2,0.3,0.5,0.6,0.9,0.8
				c0.5,0.2,0.9,0.3,1.4,0.3c0.9,0,1.6-0.3,2-1c0.2-0.3,0.3-0.7,0.3-1.1c0-0.6-0.3-1.1-0.8-1.3c-0.3-0.1-0.7-0.2-1.2-0.3
				c-1.3-0.2-2.1-0.4-2.5-0.7c-0.6-0.4-0.9-1.1-0.9-2.1c0-1,0.3-1.8,1-2.3c0.7-0.6,1.7-0.9,2.9-0.9c1.1,0,2,0.2,2.7,0.5l0.1,0.2
				c-0.1,0.6-0.2,1.3-0.2,2.1l-0.1,0.1h-0.5l-0.1-0.1c0-0.6,0-0.9-0.1-1.1c-0.1-0.2-0.4-0.4-0.8-0.6c-0.4-0.2-0.8-0.2-1.2-0.2
				c-0.6,0-1.1,0.2-1.5,0.5c-0.3,0.3-0.5,0.7-0.5,1.2c0,0.6,0.2,1,0.6,1.2c0.3,0.2,0.9,0.3,1.8,0.5c0.1,0,0.4,0.1,0.8,0.1
				c0.3,0,0.5,0.1,0.8,0.2c0.5,0.2,0.8,0.5,1.1,0.8C-1037.3,130.8-1037.1,131.3-1037.1,131.9z"/>
			<path class="st0" d="M-1028.8,135.2L-1028.8,135.2c-0.5,0.1-0.9,0-1.5,0c-0.4,0-0.8,0-1.2,0l-0.1-0.1l0.1-1l-1.4,1.1
				c-0.1,0.1-0.3,0.1-0.5,0.2c-0.1,0-0.2,0-0.3,0c-0.5,0-0.9-0.2-1.2-0.5c-0.3-0.3-0.4-0.8-0.4-1.3c0-0.7,0.2-1.3,0.7-1.6
				c0.5-0.3,1.5-0.6,3.1-0.9c0-0.8-0.2-1.3-0.6-1.5c-0.2-0.2-0.5-0.2-0.9-0.2c-0.4,0-0.7,0.1-0.9,0.2l-0.3,0.7l-0.1,0.1l-0.4-0.1
				l-0.1-0.1l0-0.8c0.8-0.6,1.4-0.9,1.8-1c0.2,0,0.4-0.1,0.7-0.1c0.9,0,1.6,0.2,2,0.7c0.3,0.4,0.4,0.9,0.4,1.6c0,0.2,0,0.5,0,0.9
				c0,0.7,0,1.1,0,1.3c0,0.7,0,1.2,0,1.4c0,0.2,0.1,0.3,0.2,0.4c0.1,0.1,0.3,0.1,0.6,0.1l0.1,0.1V135.2z M-1031.4,133.5v-1.8
				c-0.8,0.2-1.3,0.4-1.6,0.6c-0.3,0.2-0.4,0.5-0.4,0.9c0,0.7,0.3,1,0.9,1C-1032.1,134.2-1031.7,134-1031.4,133.5z"/>
			<path class="st0" d="M-1019.2,135.2L-1019.2,135.2c-0.5,0-1,0-1.3,0c-0.4,0-0.8,0-1.5,0.1l-0.1-0.1c0-0.2,0-0.6,0-1.2
				c-0.2,0.1-0.4,0.4-0.7,0.7c-0.4,0.4-0.7,0.6-0.8,0.7c-0.2,0.1-0.4,0.1-0.7,0.1c-0.8,0-1.5-0.3-2-0.9c-0.5-0.6-0.8-1.4-0.8-2.4
				c0-1,0.2-1.7,0.6-2.2c0.1-0.1,0.4-0.4,0.9-0.7c0.6-0.4,1-0.7,1.3-0.8c0.2-0.1,0.5-0.1,0.9-0.1c0.5,0,1,0.1,1.4,0.3v-0.4
				c0-1.3,0-2-0.1-2.2c0-0.1-0.1-0.2-0.3-0.2c-0.1,0-0.3,0-0.7,0l-0.1-0.1v-0.4l0.1-0.1c0.9-0.1,1.8-0.3,2.8-0.6l0.2,0.1
				c0,0,0,0.3,0,0.7c0,1-0.1,2.6-0.1,4.6v2.3c0,1.3,0,2.1,0.1,2.2c0,0.1,0.1,0.1,0.2,0.2c0.1,0,0.3,0.1,0.7,0.1l0.1,0.1V135.2z
				 M-1022.1,131.5v-1.3c-0.3-0.4-0.7-0.7-1-0.8c-0.2-0.1-0.4-0.1-0.7-0.1c-0.7,0-1.1,0.3-1.3,1c-0.1,0.4-0.2,0.8-0.2,1.3
				c0,1,0.2,1.7,0.7,2.2c0.2,0.3,0.6,0.4,1,0.4c0.3,0,0.7-0.1,0.9-0.3c0.3-0.2,0.4-0.4,0.5-0.6
				C-1022.1,133.1-1022.1,132.5-1022.1,131.5z"/>
		</g>
	</g>
</g>
<rect x="-606.9" y="19" class="st1" width="270" height="153"/>
<g>
	<path class="st0" d="M-466.9,112.6l-3.1-53.2l-6.2,53.3c-24.6,2.7-35.1,21.7-35.1,21.7s13-15.2,39.7-15.5
		c18.3-0.2,34.4,12.7,34.4,12.7S-448.1,114.7-466.9,112.6z"/>
	<path class="st0" d="M-469.1,44.3c2.6,1.3,5.1,2.6,7.4,4.3c2.3,1.7,4.4,3.7,5.9,6.2c0.6,1.1,1.2,2.3,1.4,3.6c0.2,1.3,0,2.6-0.6,3.7
		c-0.6,1.1-1.7,2-3,2.2c-1.2,0.2-2.8-0.4-3.3-1.6c-0.5-1.3-0.3-3,0.9-3.8c4.9-3.2,8.1-2.4,11.5,0c2.8,2,5.1,4.6,6.2,7.9
		c2.6,8-2.8,16.2-10.5,18.7c-0.4,0.1-1.5-0.2-1.9-0.3c-0.6-0.3-1.2-1.2-1.2-1.9c-0.1-5.1,4.2-9.1,8.7-10.9c0.1-0.1,0.3-0.1,0.4-0.2
		c2.1-0.8,4.6-1.5,6.6-0.4c5.3,2.8,7.1,9.7,6.6,14.9c-0.7,6.6-4.3,11.8-9,16.4c-4.9,4.9-9.8,8.7-16.4,10.8c-0.6,0.2-1.7,0.7-2.1,0.3
		c11.4-4.6,19.9-11.9,23.2-23.2c1.2-4.3,0.9-10.5-3.4-14.3c-1.6-1.3-3.8-1.5-5.7-0.9c-1.6,0.5-3.2,1.2-4.6,2.2
		c-1.3,1.1-2.5,3.1-2,4.9c0.1,0.3,0.2,0.6,0.5,0.8c0.8,0.4,1.9-0.7,2.5-1.1c0.8-0.6,1.4-1.4,2-2.2c1-1.5,1.9-3.2,2.5-4.8
		c0.7-1.6,0.7-2.2,0.7-5.3c0-2.7-1.3-5.4-3-7.6c-1.5-1.9-3.7-3.6-6.2-3.6c-0.1,0-0.3,0-0.4,0c-1.4,0.1-3.4,0.5-4.1,1.9
		c-0.3,0.6-0.2,1.4,0.4,1.6c0.4,0.2,0.9,0,1.2-0.3c0.3-0.3,0.4-0.7,0.5-1.2c0.5-1.9,0.1-4-0.8-5.8s-2.1-3.4-3.5-4.8
		C-463.9,48.2-466.5,46.2-469.1,44.3z"/>
	<path class="st0" d="M-473.7,56.9c-1.6,2.7-4,5.1-6.8,6.5c-2.2,1.2-4.7,1.8-7.2,1.5c-0.9-0.1-1.9-0.4-2.3-1.2
		c-0.4-0.7-0.3-1.6,0.1-2.3c0.6-1.1,1.7-1.8,2.9-2.1c1.2-0.3,2.5-0.2,3.6,0.1c2.6,0.6,5.2,2.3,6.1,4.9c1,3-0.5,6.3-2.3,8.9
		c-2.4,3.5-5.4,6.6-9.1,8.6c-3.6,1.9-7.8,2.6-11.8,1.6c-1.9-0.5-4.1-2.1-2.7-4.3c3.5-5.2,10.9-4.1,15-0.4c2.5,2.2,3.9,5.1,3.1,8.4
		c-1.1,4.7-5.1,8.8-8.2,12.2c-3.4,3.7-7.2,7-11.6,9.4c-1.1,0.6-2.3,1.2-3.6,1.5c-1.4,0.3-3.1,0.1-4.2-0.9c-2.3-2-1.3-5.2,0.5-7.1
		c2-2,4.8-3,7.6-3c3.6,0,7.1,1.6,10,3.8c3.3,2.4,6.4,5.2,9.1,8.2c0.9,1,1.8,2,2.2,3.3c0.1,0.4,0,0.9-0.3,0.9c-0.2,0-0.3-0.1-0.4-0.3
		c-2-2.2-4.5-3.8-6.9-5.4c-2.5-1.6-5-3.1-7.7-4.2c-3.3-1.4-8.5-2.9-11.9-1.1c-0.6,0.3-1.1,0.9-1.3,1.5c-0.2,0.9,0.3,1.8,1.1,2.3
		c2.1,1.3,4.5-0.3,6.1-1.6c3.1-2.4,5.9-5.2,8.4-8.2c1.9-2.3,3.6-4.8,4.7-7.6c1.1-2.6,2-6.2,0.7-8.9c-1.2-2.6-4.5-3.8-7.2-3.9
		c-0.8,0-1.7,0.2-2.4,0.7c-1.1,0.8-1.6,2.7,0,3.3c0.6,0.2,1.2,0.1,1.7,0c2.4-0.6,4.5-1.8,6.6-3c2.9-1.6,6.2-4.1,7.4-5.9
		c1-1.5,1.9-2.9,2.2-4c0.6-2.4,1.6-5-0.6-7c-1.3-1.2-3.4-1.4-4.9-0.6c-0.3,0.1-0.5,0.4-0.5,0.7c0,0.5,0.7,0.6,1.2,0.5
		c1.7-0.2,3.3-1,4.8-1.9c5.8-3.5,10.1-9.4,11.8-16c0,3.6-0.8,7.3-2.4,10.6C-473.3,56.1-473.5,56.5-473.7,56.9z"/>
	<g>
		<g>
			<path class="st0" d="M-491,129.4L-491,129.4c-0.7,0.1-1.1,0.2-1.1,0.6c0,0.2-0.1,0.6-0.1,1.2c0,0.5,0,1.1,0,2v2.5
				c0,1.6-0.3,2.7-0.9,3.4c-0.8,0.9-2,1.3-3.5,1.3c-1.4,0-2.5-0.2-3.3-0.7c-0.7-0.4-1.1-1-1.3-1.7c-0.1-0.5-0.2-1.7-0.2-3.6v-2.1
				c0-1.3,0-2.1-0.1-2.5c0-0.2-0.1-0.3-0.3-0.3c-0.1,0-0.4,0-0.9-0.1l-0.1-0.1v-0.5l0.1-0.1c0.5,0,1.3,0,2.5,0c1.1,0,2,0,2.4,0
				l0.1,0.1v0.5l-0.1,0.1c-0.5,0-0.9,0.1-0.9,0.1c-0.2,0-0.2,0.1-0.3,0.3c-0.1,0.4-0.1,1.2-0.1,2.5v1.6c0,2,0.1,3.2,0.3,3.7
				c0.4,0.9,1.3,1.3,2.7,1.3c0.9,0,1.7-0.2,2.2-0.7c0.2-0.2,0.4-0.4,0.5-0.7c0.1-0.2,0.2-0.6,0.2-1c0-0.4,0.1-0.9,0.1-1.3v-1.7
				c0-1.4,0-2.3,0-2.9c0-0.5,0-0.8-0.1-0.9c0-0.1-0.1-0.2-0.3-0.2c-0.1,0-0.4-0.1-1-0.1l-0.1-0.1v-0.5l0.1-0.1c0.5,0,0.9,0,1.4,0
				c0.4,0,1.1,0,2.1,0l0.1,0.1V129.4z"/>
			<path class="st0" d="M-480.1,140L-480.1,140c-0.4,0.1-0.9,0-1.4,0c-0.5,0-0.9,0-1.4,0c-0.3-0.5-1-1.4-2.2-2.7
				c-0.6-0.7-1-1.1-1.1-1.2l0.1,2.7c0,0.2,0.1,0.3,0.2,0.4c0.1,0.1,0.4,0.1,0.9,0.1l0.1,0.1v0.5l-0.1,0.1c-0.5,0-1.2-0.1-2.2-0.1
				c-1,0-1.7,0-2.2,0.1l-0.1-0.1v-0.5l0.1-0.1c0.5,0,0.8-0.1,0.9-0.1c0.1,0,0.2-0.2,0.2-0.4c0-0.7,0.1-1.9,0.1-3.6v-2.7
				c0-1.1,0-2-0.1-2.7c0-0.2-0.1-0.3-0.2-0.4c-0.1-0.1-0.4-0.1-0.9-0.1l-0.1-0.1v-0.4l0.1-0.1c1-0.1,2.1-0.3,3.1-0.7l0.2,0.1
				c0,0.1,0,0.4,0,0.8c-0.1,1.3-0.1,2.7-0.1,4.2v2.6l0.8-0.6c0.3-0.3,0.8-0.8,1.5-1.4l0.8-0.9c0.2-0.2,0.3-0.3,0.4-0.4
				c0.5,0,0.8,0,1.1,0c0.4,0,0.7,0,1,0l0.1,0.1v0.5l-0.1,0.1l-0.6,0c-0.2,0-0.5,0.1-0.7,0.3c-0.1,0.1-0.3,0.2-0.6,0.5l-0.7,0.5
				l-0.2,0.2l-0.7,0.6l1.7,2c1.1,1.3,1.7,2,2,2.1c0.1,0.1,0.2,0.1,0.4,0.1l0.1,0.1V140z"/>
			<path class="st0" d="M-472.9,132.3l-0.1,1.4c0,0.2,0,0.5,0,0.8l-0.3,0.1c-0.2-0.4-0.6-0.5-1-0.5c-0.4,0-0.7,0.2-1,0.5
				c-0.2,0.2-0.2,0.5-0.2,0.9v1.9c0,0.4,0,0.9,0.1,1.6c0,0.2,0.1,0.3,0.2,0.4c0.1,0.1,0.5,0.1,1.1,0.1l0.1,0.1v0.5l-0.1,0.1
				c-0.8,0-1.6,0-2.3,0c-1,0-1.7,0-2.2,0.1l-0.1-0.1v-0.5l0.1-0.1c0.5,0,0.8-0.1,0.9-0.1c0.1,0,0.2-0.2,0.2-0.4
				c0-0.7,0.1-1.4,0.1-2.2v-1.1c0-1.1,0-1.7-0.1-1.8c-0.1-0.1-0.2-0.2-0.3-0.2c-0.1,0-0.3,0-0.7,0l-0.1-0.1v-0.4l0.1-0.1
				c1-0.1,2-0.3,3-0.7l0.2,0.1l0,1.6c0.3-0.4,0.7-0.8,1.2-1.3c0.2-0.2,0.5-0.3,0.9-0.3C-473.3,132.2-473.1,132.2-472.9,132.3z"/>
			<path class="st0" d="M-463.1,136.3c0,0.9-0.2,1.6-0.7,2.3c-0.4,0.6-1,1-1.7,1.3c-0.6,0.3-1.4,0.4-2.3,0.4c-1.1,0-2.2-0.3-3.3-0.8
				l-0.1-0.2c0.1-0.6,0.2-1.5,0.2-2.6l0.1-0.1h0.5l0.1,0.1v0.2c0,0.3,0,0.7,0.1,1.2c0.2,0.3,0.5,0.6,1,0.9c0.5,0.3,1.1,0.4,1.6,0.4
				c1.1,0,1.8-0.4,2.2-1.1c0.2-0.4,0.3-0.8,0.3-1.2c0-0.7-0.3-1.2-0.9-1.5c-0.3-0.1-0.7-0.3-1.4-0.4c-1.4-0.2-2.4-0.5-2.8-0.8
				c-0.7-0.5-1-1.3-1-2.3c0-1.1,0.4-2,1.1-2.6c0.8-0.7,1.9-1,3.2-1c1.2,0,2.2,0.2,3,0.6l0.1,0.2c-0.1,0.6-0.2,1.4-0.2,2.3l-0.1,0.1
				h-0.5l-0.1-0.1c0-0.6,0-1.1-0.1-1.2c-0.2-0.2-0.5-0.5-0.9-0.6c-0.4-0.2-0.9-0.3-1.4-0.3c-0.7,0-1.3,0.2-1.7,0.6
				c-0.4,0.4-0.6,0.8-0.6,1.4c0,0.6,0.2,1.1,0.7,1.3c0.3,0.2,1,0.4,2,0.5c0.1,0,0.4,0.1,0.9,0.2c0.3,0.1,0.6,0.1,0.9,0.2
				c0.5,0.2,0.9,0.5,1.2,0.9C-463.3,135.1-463.1,135.6-463.1,136.3z"/>
			<path class="st0" d="M-453.8,140L-453.8,140c-0.5,0.1-1,0-1.6,0c-0.5,0-0.9,0-1.3,0l-0.1-0.1l0.1-1.1l-1.5,1.2
				c-0.1,0.1-0.3,0.1-0.5,0.2c-0.1,0-0.2,0-0.3,0c-0.6,0-1-0.2-1.4-0.5c-0.3-0.4-0.5-0.8-0.5-1.5c0-0.8,0.3-1.4,0.8-1.8
				c0.6-0.4,1.7-0.7,3.4-1c0-0.8-0.2-1.4-0.7-1.7c-0.3-0.2-0.6-0.3-1-0.3c-0.4,0-0.7,0.1-1,0.3l-0.3,0.7l-0.1,0.1l-0.4-0.1l-0.1-0.1
				l0-0.9c0.9-0.6,1.5-1,2-1.1c0.2,0,0.4-0.1,0.7-0.1c1,0,1.8,0.3,2.2,0.8c0.3,0.4,0.5,1,0.5,1.8c0,0.2,0,0.5,0,1c0,0.7,0,1.2,0,1.5
				c0,0.8,0,1.3,0,1.5c0,0.2,0.1,0.4,0.2,0.4c0.1,0.1,0.3,0.1,0.7,0.1l0.1,0.1V140z M-456.8,138.1v-2c-0.9,0.2-1.5,0.4-1.8,0.6
				c-0.3,0.2-0.5,0.6-0.5,1c0,0.7,0.3,1.1,0.9,1.1C-457.5,138.8-457.1,138.6-456.8,138.1z"/>
			<path class="st0" d="M-443.3,140L-443.3,140c-0.6,0-1.1,0-1.5,0c-0.4,0-0.9,0-1.6,0.1l-0.1-0.1c0-0.3,0-0.7,0-1.3
				c-0.2,0.2-0.5,0.4-0.8,0.7c-0.4,0.4-0.7,0.7-0.9,0.7c-0.2,0.1-0.4,0.1-0.8,0.1c-0.9,0-1.6-0.3-2.2-1c-0.6-0.7-0.8-1.6-0.8-2.7
				c0-1.1,0.2-1.9,0.6-2.5c0.1-0.2,0.4-0.4,1-0.8c0.6-0.5,1.1-0.7,1.4-0.9c0.3-0.1,0.6-0.2,1-0.2c0.6,0,1.1,0.1,1.5,0.4v-0.4
				c0-1.4,0-2.2-0.1-2.5c0-0.1-0.1-0.2-0.3-0.3c-0.1,0-0.3,0-0.7,0l-0.1-0.1v-0.4l0.1-0.1c1-0.1,2-0.3,3.1-0.7l0.2,0.1
				c0,0,0,0.3,0,0.8c0,1.1-0.1,2.9-0.1,5.1v2.6c0,1.5,0,2.3,0.1,2.5c0,0.1,0.1,0.1,0.2,0.2c0.1,0,0.4,0.1,0.8,0.1l0.1,0.1V140z
				 M-446.4,135.8v-1.5c-0.4-0.5-0.7-0.7-1.1-0.9c-0.2-0.1-0.5-0.1-0.8-0.1c-0.7,0-1.2,0.4-1.4,1.1c-0.1,0.4-0.2,0.9-0.2,1.4
				c0,1.1,0.3,1.9,0.8,2.4c0.3,0.3,0.6,0.4,1.1,0.4c0.4,0,0.7-0.1,1.1-0.4c0.3-0.2,0.5-0.4,0.5-0.7
				C-446.4,137.6-446.4,137-446.4,135.8z"/>
		</g>
	</g>
</g>
<g>
	<text transform="matrix(1 0 0 1 -874.7506 52.3135)"><tspan x="0" y="0" class="st4" style="font-family:'PalatinoLinotype-Bold'; font-size:19.133px;">Яриш</tspan><tspan x="0" y="23" class="st4" style="font-family:'PalatinoLinotype-Bold'; font-size:19.133px;">Наталія</tspan></text>
</g>
<rect x="-898.3" y="136" class="st2" width="304" height="18"/>
<text transform="matrix(1 0 0 1 -821.1432 147.2671)" style="font-family:'GothamPro'; font-size:8px;">Ландшафтний дизайн</text>
<rect x="-898.3" y="118.5" class="st3" width="304" height="18"/>
<text transform="matrix(1 0 0 1 -812.1393 129.7671)" style="font-family:'GothamPro'; font-size:8px;">Розсадник рослин</text>
<rect x="-744.8" y="43" class="st1" width="11" height="11"/>
<g>
	<g>
		<path class="st4" d="M-742.4,46.4c0.4,1.1,1.1,2.2,2.2,3.3c1.1,1.1,2.3,1.9,3.3,2.2c0.1,0,0.3,0,0.4-0.1l0.7-0.7l0.2-0.2
			c0.2-0.2,0.2-0.4,0-0.6l-1.1-1.1c-0.2-0.2-0.4-0.2-0.6,0l-0.3,0.3c-0.2,0.2-0.4,0.2-0.6,0c-0.4-0.3-0.7-0.6-1-0.9
			c-0.3-0.3-0.6-0.7-0.9-1c-0.1-0.2-0.1-0.4,0-0.6l0.3-0.3c0.2-0.2,0.2-0.4,0-0.6l-1.1-1.1c-0.2-0.2-0.4-0.2-0.6,0l-0.2,0.2
			l-0.7,0.7C-742.4,46.1-742.5,46.3-742.4,46.4z"/>
	</g>
</g>
<g>
	<text transform="matrix(1 0 0 1 -727.8512 51.1802)" style="font-family:'GothamPro'; font-size:8px;">+ 38 (097) 75 545 50</text>
</g>
<rect x="-744.8" y="64" class="st1" width="11" height="11"/>
<g>
	<text transform="matrix(1 0 0 1 -727.8512 72.1802)" style="font-family:'GothamPro'; font-size:8px;">ukrsad_official</text>
</g>
<g>
	<path class="st4" d="M-735.8,68.5c0-0.3-0.1-0.6-0.2-0.8c-0.2-0.5-0.5-0.8-1-1c-0.3-0.1-0.5-0.2-0.8-0.2c-0.4,0-0.5,0-1.4,0
		c-0.9,0-1,0-1.4,0c-0.3,0-0.6,0.1-0.8,0.2c-0.5,0.2-0.8,0.5-1,1c-0.1,0.3-0.2,0.5-0.2,0.8c0,0.4,0,0.5,0,1.4s0,1,0,1.4
		c0,0.3,0.1,0.6,0.2,0.8c0.2,0.5,0.5,0.8,1,1c0.3,0.1,0.5,0.2,0.8,0.2c0.4,0,0.5,0,1.4,0c0.9,0,1,0,1.4,0c0.3,0,0.6-0.1,0.8-0.2
		c0.5-0.2,0.8-0.5,1-1c0.1-0.3,0.2-0.5,0.2-0.8c0-0.4,0-0.5,0-1.4C-735.8,69-735.8,68.8-735.8,68.5z M-739.2,71.6
		c-1,0-1.7-0.8-1.7-1.7c0-1,0.8-1.7,1.7-1.7c1,0,1.7,0.8,1.7,1.7C-737.5,70.8-738.2,71.6-739.2,71.6z M-737.4,68.5
		c-0.2,0-0.4-0.2-0.4-0.4c0,0,0,0,0,0c0-0.2,0.2-0.4,0.4-0.4s0.4,0.2,0.4,0.4l0,0C-737,68.3-737.2,68.5-737.4,68.5z"/>
	<circle class="st4" cx="-739.2" cy="69.9" r="1.1"/>
</g>
<rect x="-321.9" y="19.5" class="st5" width="268.5" height="153"/>
<g>
	<text transform="matrix(1 0 0 1 -138.1487 46.3135)"><tspan x="0" y="0" class="st1" style="font-family:'GothamPro-Bold'; font-size:14px;">Наталія</tspan><tspan x="21.2" y="16.8" class="st1" style="font-family:'GothamPro-Bold'; font-size:14px;">Яриш</tspan></text>
</g>
<rect x="-141.4" y="-123" class="st2" width="304" height="18"/>
<text transform="matrix(1 0 0 1 -64.2298 -111.7329)" style="font-family:'GothamPro'; font-size:8px;">Ландшафтний дизайн</text>
<rect x="-141.4" y="-140.5" class="st3" width="304" height="18"/>
<text transform="matrix(1 0 0 1 -55.2259 -129.2329)" style="font-family:'GothamPro'; font-size:8px;">Розсадник рослин</text>
<rect x="-177.8" y="-25" class="st1" width="11" height="11"/>
<g>
	<g>
		<path class="st1" d="M-166.4,79.2c0.3,0.9,1,1.9,1.9,2.9c0.9,0.9,2,1.6,2.9,1.9c0.1,0,0.3,0,0.4-0.1l0.6-0.6l0.1-0.1
			c0.1-0.1,0.1-0.3,0-0.5l-1-1c-0.1-0.1-0.3-0.1-0.5,0l-0.3,0.3c-0.1,0.1-0.4,0.1-0.5,0c-0.3-0.2-0.6-0.5-0.9-0.8
			c-0.3-0.3-0.6-0.6-0.8-0.9c-0.1-0.2-0.1-0.4,0-0.5l0.3-0.3c0.1-0.1,0.1-0.3,0-0.5l-1-1c-0.1-0.1-0.3-0.1-0.5,0l-0.1,0.1l-0.6,0.6
			C-166.4,79-166.4,79.1-166.4,79.2z"/>
	</g>
</g>
<g>
	<text transform="matrix(1 0 0 1 -154.9378 83.1802)" style="font-family:'GothamPro'; font-size:8px;">+ 38 (097) 75 545 50</text>
</g>
<rect x="-247.8" y="-12" class="st1" width="11" height="11"/>
<g>
	<text transform="matrix(1 0 0 1 -292.8512 114.1802)" style="font-family:'GothamPro'; font-size:8px;">ukrsad_official</text>
</g>
<g>
	<text transform="matrix(1 0 0 1 -304.8512 142.1802)"><tspan x="0" y="0" style="font-family:'GothamPro'; font-size:8px;">Розсадник рослин</tspan><tspan x="0" y="14" style="font-family:'GothamPro'; font-size:8px;">Ландшафтний дизайн</tspan></text>
</g>
<g>
	<g>
		<path class="st1" d="M-297.8,110.5c0-0.3-0.1-0.6-0.2-0.8c-0.2-0.5-0.5-0.8-1-1c-0.3-0.1-0.5-0.2-0.8-0.2c-0.4,0-0.5,0-1.4,0
			c-0.9,0-1,0-1.4,0c-0.3,0-0.6,0.1-0.8,0.2c-0.5,0.2-0.8,0.5-1,1c-0.1,0.3-0.2,0.5-0.2,0.8c0,0.4,0,0.5,0,1.4s0,1,0,1.4
			c0,0.3,0.1,0.6,0.2,0.8c0.2,0.5,0.5,0.8,1,1c0.3,0.1,0.5,0.2,0.8,0.2c0.4,0,0.5,0,1.4,0c0.9,0,1,0,1.4,0c0.3,0,0.6-0.1,0.8-0.2
			c0.5-0.2,0.8-0.5,1-1c0.1-0.3,0.2-0.5,0.2-0.8c0-0.4,0-0.5,0-1.4C-297.8,111-297.8,110.8-297.8,110.5z M-301.2,113.6
			c-1,0-1.7-0.8-1.7-1.7c0-1,0.8-1.7,1.7-1.7c1,0,1.7,0.8,1.7,1.7C-299.5,112.8-300.2,113.6-301.2,113.6z M-299.4,110.5
			c-0.2,0-0.4-0.2-0.4-0.4c0,0,0,0,0,0c0-0.2,0.2-0.4,0.4-0.4s0.4,0.2,0.4,0.4l0,0C-299,110.3-299.2,110.5-299.4,110.5z"/>
		<circle class="st1" cx="-301.2" cy="111.9" r="1.1"/>
	</g>
</g>
<image style="overflow:visible;" width="828" height="813" xlink:href="252751F3.jpg"  transform="matrix(0.4562 0 0 0.4562 -425.8268 -396)">
</image>
<g>
	<g>
		<g>
			<path class="st1" d="M-282.6,69.2l-1.5-26.4l-3.1,26.5c-12.2,1.3-17.4,10.8-17.4,10.8s6.5-7.5,19.7-7.7
				c9.1-0.1,17.1,6.3,17.1,6.3S-273.3,70.3-282.6,69.2z"/>
		</g>
		<g>
			<path class="st1" d="M-283.7,35.3c1.3,0.6,2.5,1.3,3.7,2.1s2.2,1.8,2.9,3.1c0.3,0.5,0.6,1.1,0.7,1.8c0.1,0.6,0,1.3-0.3,1.8
				c-0.3,0.6-0.9,1-1.5,1.1c-0.6,0.1-1.4-0.2-1.6-0.8c-0.3-0.7-0.1-1.5,0.5-1.9c2.4-1.6,4-1.2,5.7,0c1.4,1,2.5,2.3,3.1,3.9
				c1.3,4-1.4,8.1-5.2,9.3c-0.2,0.1-0.7-0.1-0.9-0.2c-0.3-0.1-0.6-0.6-0.6-0.9c-0.1-2.5,2.1-4.5,4.3-5.4c0.1,0,0.1-0.1,0.2-0.1
				c1.1-0.4,2.3-0.7,3.3-0.2c2.6,1.4,3.5,4.8,3.3,7.4c-0.4,3.3-2.2,5.9-4.5,8.2c-2.4,2.4-4.9,4.3-8.2,5.4c-0.3,0.1-0.8,0.4-1,0.1
				c5.7-2.3,9.9-5.9,11.5-11.5c0.6-2.1,0.5-5.2-1.7-7.1c-0.8-0.7-1.9-0.8-2.9-0.4c-0.8,0.3-1.6,0.6-2.3,1.1c-0.7,0.5-1.2,1.5-1,2.4
				c0,0.2,0.1,0.3,0.3,0.4c0.4,0.2,1-0.3,1.2-0.6c0.4-0.3,0.7-0.7,1-1.1c0.5-0.7,0.9-1.6,1.3-2.4c0.3-0.8,0.4-1.1,0.4-2.6
				c0-1.4-0.7-2.7-1.5-3.8c-0.7-1-1.8-1.8-3.1-1.8c-0.1,0-0.1,0-0.2,0c-0.7,0-1.7,0.3-2.1,1c-0.1,0.3-0.1,0.7,0.2,0.8
				c0.2,0.1,0.4,0,0.6-0.2s0.2-0.4,0.3-0.6c0.2-1,0-2-0.4-2.9s-1-1.7-1.7-2.4C-281.1,37.2-282.4,36.2-283.7,35.3z"/>
		</g>
		<g>
			<path class="st1" d="M-286,41.5c-0.8,1.4-2,2.5-3.4,3.3c-1.1,0.6-2.4,0.9-3.6,0.7c-0.4-0.1-0.9-0.2-1.1-0.6
				c-0.2-0.3-0.1-0.8,0-1.1c0.3-0.5,0.8-0.9,1.4-1c0.6-0.1,1.2-0.1,1.8,0.1c1.3,0.3,2.6,1.1,3,2.4c0.5,1.5-0.2,3.1-1.1,4.4
				c-1.2,1.7-2.7,3.3-4.5,4.3c-1.8,1-3.9,1.3-5.9,0.8c-0.9-0.3-2.1-1.1-1.3-2.1c1.7-2.6,5.4-2,7.5-0.2c1.2,1.1,1.9,2.5,1.5,4.2
				c-0.5,2.3-2.5,4.4-4.1,6.1c-1.7,1.8-3.6,3.5-5.8,4.7c-0.6,0.3-1.2,0.6-1.8,0.7c-0.7,0.1-1.5,0-2.1-0.5c-1.1-1-0.6-2.6,0.3-3.5
				c1-1,2.4-1.5,3.8-1.5c1.8,0,3.5,0.8,5,1.9c1.6,1.2,3.2,2.6,4.5,4.1c0.4,0.5,0.9,1,1.1,1.6c0.1,0.2,0,0.5-0.2,0.5
				c-0.1,0-0.1-0.1-0.2-0.1c-1-1.1-2.2-1.9-3.4-2.7c-1.2-0.8-2.5-1.5-3.8-2.1c-1.6-0.7-4.2-1.5-5.9-0.5c-0.3,0.2-0.6,0.4-0.6,0.8
				c-0.1,0.4,0.2,0.9,0.6,1.1c1,0.6,2.2-0.1,3-0.8c1.5-1.2,2.9-2.6,4.2-4.1c0.9-1.1,1.8-2.4,2.3-3.8c0.5-1.3,1-3.1,0.4-4.4
				c-0.6-1.3-2.2-1.9-3.6-1.9c-0.4,0-0.9,0.1-1.2,0.3c-0.5,0.4-0.8,1.4,0,1.7c0.3,0.1,0.6,0.1,0.9,0c1.2-0.3,2.2-0.9,3.3-1.5
				c1.4-0.8,3.1-2,3.7-3c0.5-0.7,0.9-1.4,1.1-2c0.3-1.2,0.8-2.5-0.3-3.5c-0.7-0.6-1.7-0.7-2.5-0.3c-0.1,0.1-0.3,0.2-0.3,0.3
				c0,0.2,0.3,0.3,0.6,0.3c0.9-0.1,1.7-0.5,2.4-1c2.9-1.8,5-4.7,5.9-7.9c0,1.8-0.4,3.6-1.2,5.3C-285.8,41.1-285.9,41.3-286,41.5z"/>
		</g>
		<g>
			<g>
				<path class="st1" d="M-294.6,77.5L-294.6,77.5c-0.4,0-0.5,0.1-0.6,0.3c0,0.1,0,0.3,0,0.6c0,0.2,0,0.6,0,1v1.2
					c0,0.8-0.2,1.3-0.5,1.7c-0.4,0.4-1,0.7-1.8,0.7c-0.7,0-1.2-0.1-1.6-0.3c-0.3-0.2-0.5-0.5-0.6-0.8c-0.1-0.2-0.1-0.8-0.1-1.8v-1
					c0-0.6,0-1-0.1-1.2c0-0.1-0.1-0.1-0.1-0.1c0,0-0.2,0-0.5,0l0,0v-0.3l0,0c0.3,0,0.7,0,1.2,0c0.6,0,1,0,1.2,0l0,0v0.3l0,0
					c-0.3,0-0.4,0-0.5,0c-0.1,0-0.1,0.1-0.1,0.1c0,0.2-0.1,0.6-0.1,1.2v0.8c0,1,0,1.6,0.1,1.8c0.2,0.4,0.6,0.7,1.3,0.7
					c0.5,0,0.8-0.1,1.1-0.3c0.1-0.1,0.2-0.2,0.3-0.3c0-0.1,0.1-0.3,0.1-0.5c0-0.2,0-0.4,0-0.7v-0.8c0-0.7,0-1.2,0-1.4
					c0-0.2,0-0.4,0-0.5c0-0.1-0.1-0.1-0.1-0.1c-0.1,0-0.2,0-0.5-0.1l0,0v-0.3l0,0c0.2,0,0.5,0,0.7,0c0.2,0,0.5,0,1,0l0,0V77.5z"/>
				<path class="st1" d="M-289.2,82.8L-289.2,82.8c-0.2,0-0.4,0-0.7,0c-0.2,0-0.5,0-0.7,0c-0.1-0.3-0.5-0.7-1.1-1.3
					c-0.3-0.3-0.5-0.5-0.6-0.6l0,1.4c0,0.1,0,0.2,0.1,0.2c0.1,0,0.2,0.1,0.5,0.1l0,0v0.2l0,0c-0.3,0-0.6,0-1.1,0c-0.5,0-0.8,0-1.1,0
					l0,0v-0.2l0,0c0.3,0,0.4,0,0.5-0.1c0.1,0,0.1-0.1,0.1-0.2c0-0.3,0-0.9,0-1.8v-1.3c0-0.6,0-1,0-1.3c0-0.1,0-0.2-0.1-0.2
					c-0.1,0-0.2,0-0.5-0.1l0,0v-0.2l0,0c0.5-0.1,1-0.2,1.5-0.3l0.1,0c0,0.1,0,0.2,0,0.4c0,0.6,0,1.3,0,2.1v1.3l0.4-0.3
					c0.2-0.1,0.4-0.4,0.7-0.7l0.4-0.4c0.1-0.1,0.1-0.2,0.2-0.2c0.2,0,0.4,0,0.5,0c0.2,0,0.3,0,0.5,0l0,0v0.2l0,0l-0.3,0
					c-0.1,0-0.2,0.1-0.4,0.1c0,0-0.1,0.1-0.3,0.2l-0.3,0.3l-0.1,0.1l-0.3,0.3l0.8,1c0.5,0.6,0.9,1,1,1c0.1,0,0.1,0,0.2,0l0,0V82.8z"
					/>
				<path class="st1" d="M-285.6,79l0,0.7c0,0.1,0,0.2,0,0.4l-0.2,0.1c-0.1-0.2-0.3-0.3-0.5-0.3c-0.2,0-0.4,0.1-0.5,0.2
					c-0.1,0.1-0.1,0.2-0.1,0.4v0.9c0,0.2,0,0.5,0,0.8c0,0.1,0,0.2,0.1,0.2c0.1,0,0.2,0,0.6,0.1l0,0v0.2l0,0c-0.4,0-0.8,0-1.2,0
					c-0.5,0-0.8,0-1.1,0l0,0v-0.2l0,0c0.3,0,0.4,0,0.5-0.1c0.1,0,0.1-0.1,0.1-0.2c0-0.3,0-0.7,0-1.1v-0.6c0-0.5,0-0.8-0.1-0.9
					c0-0.1-0.1-0.1-0.2-0.1c0,0-0.1,0-0.3,0l0,0v-0.2l0,0c0.5,0,1-0.2,1.5-0.3l0.1,0.1l0,0.8c0.2-0.2,0.4-0.4,0.6-0.7
					c0.1-0.1,0.3-0.2,0.4-0.2C-285.8,79-285.7,79-285.6,79z"/>
				<path class="st1" d="M-280.7,81c0,0.4-0.1,0.8-0.4,1.2c-0.2,0.3-0.5,0.5-0.9,0.7c-0.3,0.1-0.7,0.2-1.2,0.2
					c-0.6,0-1.1-0.1-1.6-0.4l0-0.1c0.1-0.3,0.1-0.7,0.1-1.3l0,0h0.3l0,0v0.1c0,0.1,0,0.3,0,0.6c0.1,0.2,0.3,0.3,0.5,0.4
					c0.3,0.1,0.5,0.2,0.8,0.2c0.5,0,0.9-0.2,1.1-0.5c0.1-0.2,0.2-0.4,0.2-0.6c0-0.3-0.1-0.6-0.4-0.7c-0.1-0.1-0.4-0.1-0.7-0.2
					c-0.7-0.1-1.2-0.2-1.4-0.4c-0.3-0.2-0.5-0.6-0.5-1.2c0-0.5,0.2-1,0.5-1.3c0.4-0.3,0.9-0.5,1.6-0.5c0.6,0,1.1,0.1,1.5,0.3l0,0.1
					c-0.1,0.3-0.1,0.7-0.1,1.1l0,0h-0.2l0,0c0-0.3,0-0.5,0-0.6c-0.1-0.1-0.2-0.2-0.4-0.3c-0.2-0.1-0.4-0.1-0.7-0.1
					c-0.4,0-0.6,0.1-0.8,0.3c-0.2,0.2-0.3,0.4-0.3,0.7c0,0.3,0.1,0.5,0.3,0.7c0.1,0.1,0.5,0.2,1,0.3c0.1,0,0.2,0,0.5,0.1
					c0.2,0,0.3,0.1,0.4,0.1c0.3,0.1,0.5,0.3,0.6,0.5C-280.8,80.4-280.7,80.7-280.7,81z"/>
				<path class="st1" d="M-276.1,82.8L-276.1,82.8c-0.3,0-0.5,0-0.8,0c-0.2,0-0.4,0-0.6,0l0,0l0-0.5l-0.8,0.6
					c-0.1,0-0.1,0.1-0.3,0.1c0,0-0.1,0-0.2,0c-0.3,0-0.5-0.1-0.7-0.3c-0.2-0.2-0.2-0.4-0.2-0.7c0-0.4,0.1-0.7,0.4-0.9
					c0.3-0.2,0.9-0.4,1.7-0.5c0-0.4-0.1-0.7-0.3-0.8c-0.1-0.1-0.3-0.1-0.5-0.1c-0.2,0-0.4,0-0.5,0.1l-0.2,0.4l-0.1,0l-0.2,0l0-0.1
					l0-0.5c0.4-0.3,0.8-0.5,1-0.5c0.1,0,0.2,0,0.4,0c0.5,0,0.9,0.1,1.1,0.4c0.2,0.2,0.2,0.5,0.2,0.9c0,0.1,0,0.3,0,0.5
					c0,0.4,0,0.6,0,0.7c0,0.4,0,0.7,0,0.8c0,0.1,0,0.2,0.1,0.2c0,0,0.2,0,0.4,0.1l0,0V82.8z M-277.6,81.9v-1
					c-0.4,0.1-0.7,0.2-0.9,0.3c-0.2,0.1-0.2,0.3-0.2,0.5c0,0.4,0.2,0.5,0.5,0.5C-278,82.3-277.7,82.1-277.6,81.9z"/>
				<path class="st1" d="M-270.9,82.8L-270.9,82.8c-0.3,0-0.5,0-0.7,0c-0.2,0-0.5,0-0.8,0l0,0c0-0.1,0-0.3,0-0.6
					c-0.1,0.1-0.2,0.2-0.4,0.4c-0.2,0.2-0.4,0.3-0.4,0.4c-0.1,0-0.2,0.1-0.4,0.1c-0.5,0-0.8-0.2-1.1-0.5c-0.3-0.3-0.4-0.8-0.4-1.3
					c0-0.5,0.1-0.9,0.3-1.2c0.1-0.1,0.2-0.2,0.5-0.4c0.3-0.2,0.5-0.4,0.7-0.4c0.1-0.1,0.3-0.1,0.5-0.1c0.3,0,0.5,0.1,0.8,0.2v-0.2
					c0-0.7,0-1.1-0.1-1.2c0-0.1-0.1-0.1-0.2-0.1c0,0-0.2,0-0.4,0l0,0v-0.2l0,0c0.5-0.1,1-0.2,1.5-0.3l0.1,0c0,0,0,0.1,0,0.4
					c0,0.6,0,1.4,0,2.6v1.3c0,0.7,0,1.1,0.1,1.2c0,0,0,0.1,0.1,0.1c0.1,0,0.2,0,0.4,0.1l0,0V82.8z M-272.4,80.7V80
					c-0.2-0.2-0.4-0.4-0.5-0.4c-0.1,0-0.2-0.1-0.4-0.1c-0.4,0-0.6,0.2-0.7,0.6c-0.1,0.2-0.1,0.4-0.1,0.7c0,0.5,0.1,1,0.4,1.2
					c0.1,0.1,0.3,0.2,0.5,0.2c0.2,0,0.4-0.1,0.5-0.2c0.1-0.1,0.2-0.2,0.3-0.3C-272.4,81.6-272.4,81.3-272.4,80.7z"/>
			</g>
		</g>
	</g>
</g>
<g>
	<path class="st1" d="M97.7,46.5c-2.3,3.8-5.5,7-9.4,9.1c-3.1,1.6-6.6,2.5-10,2.1c-1.2-0.2-2.6-0.6-3.2-1.7
		c-0.6-0.9-0.4-2.2,0.1-3.2c0.8-1.5,2.4-2.5,4-2.9c1.7-0.4,3.4-0.2,5,0.2c3.7,0.9,7.2,3.2,8.5,6.8c1.4,4.2-0.7,8.7-3.1,12.4
		c-3.3,4.8-7.4,9.2-12.6,12c-5,2.7-10.8,3.6-16.3,2.2c-2.6-0.7-5.7-2.9-3.7-5.9c4.9-7.2,15.1-5.6,20.8-0.6c3.4,3,5.3,7,4.3,11.6
		c-1.5,6.5-7,12.2-11.4,16.9c-4.7,5.1-10,9.7-16.1,13.1c-1.6,0.9-3.2,1.7-5,2c-2,0.4-4.2,0.1-5.8-1.3c-3.1-2.7-1.8-7.3,0.7-9.8
		c2.7-2.8,6.7-4.2,10.5-4.1c5,0.1,9.8,2.3,13.9,5.2c4.6,3.3,8.9,7.3,12.6,11.4c1.2,1.3,2.4,2.8,3,4.5c0.2,0.5,0.1,1.3-0.5,1.3
		c-0.2,0-0.4-0.2-0.6-0.4c-2.8-3-6.2-5.3-9.6-7.4c-3.4-2.1-6.9-4.3-10.6-5.8c-4.6-1.9-11.8-4.1-16.5-1.5c-0.8,0.4-1.5,1.2-1.7,2.1
		c-0.3,1.2,0.5,2.5,1.5,3.2c2.9,1.8,6.2-0.4,8.5-2.2c4.3-3.4,8.2-7.2,11.6-11.4c2.6-3.1,5-6.6,6.5-10.5c1.5-3.6,2.8-8.6,1-12.3
		c-1.7-3.7-6.2-5.3-10-5.3c-1.2,0-2.4,0.2-3.3,0.9c-1.5,1.1-2.2,3.8,0,4.6c0.8,0.3,1.6,0.2,2.4,0c3.3-0.8,6.2-2.5,9.2-4.1
		c4-2.1,8.5-5.6,10.3-8.2c1.4-2.1,2.6-4,3-5.6c0.9-3.3,2.2-6.9-0.8-9.6c-1.8-1.6-4.7-2-6.8-0.8c-0.4,0.2-0.8,0.5-0.7,0.9
		c0,0.7,0.9,0.8,1.6,0.7c2.4-0.3,4.6-1.4,6.7-2.7c8-4.9,14-13,16.4-22.1c0,5-1,10.1-3.3,14.6C98.3,45.4,98,45.9,97.7,46.5z"/>
	<g>
		<path class="st1" d="M107.1,123.6l-4.3-73.7l-8.5,73.8c-34,3.7-48.5,30-48.5,30s18-21,54.9-21.5c25.4-0.3,47.6,17.6,47.6,17.6
			S133.1,126.5,107.1,123.6z"/>
		<path class="st1" d="M104.1,29c3.5,1.8,7.1,3.6,10.3,5.9c3.2,2.3,6.1,5.1,8.1,8.6c0.9,1.5,1.6,3.2,1.9,4.9s0.1,3.6-0.8,5.2
			c-0.9,1.6-2.4,2.8-4.1,3c-1.7,0.2-3.9-0.6-4.5-2.2c-0.7-1.9-0.4-4.2,1.3-5.3c6.8-4.4,11.2-3.4,15.9,0c3.9,2.8,7.1,6.4,8.6,11
			c3.6,11.1-3.9,22.5-14.6,25.9c-0.5,0.2-2.1-0.2-2.6-0.4c-0.9-0.4-1.7-1.6-1.7-2.6c-0.2-7,5.8-12.5,12-15.1
			c0.2-0.1,0.4-0.2,0.6-0.2c2.9-1.1,6.4-2.1,9.2-0.6c7.4,3.9,9.9,13.5,9.1,20.6c-1,9.1-6,16.3-12.4,22.7c-6.7,6.7-13.6,12.1-22.7,15
			c-0.8,0.2-2.3,1-2.9,0.4c15.8-6.4,27.5-16.5,32.1-32.1c1.7-6,1.3-14.6-4.7-19.7c-2.1-1.8-5.3-2.1-8-1.2c-2.2,0.7-4.5,1.6-6.3,3.1
			c-1.9,1.5-3.5,4.2-2.8,6.7c0.1,0.4,0.3,0.9,0.8,1.1c1.1,0.5,2.7-0.9,3.5-1.6c1.1-0.9,2-2,2.8-3.1c1.4-2.1,2.6-4.4,3.5-6.7
			c0.9-2.3,1-3,1-7.3c0-3.8-1.8-7.4-4.2-10.5c-2.1-2.7-5.1-4.9-8.6-5c-0.2,0-0.4,0-0.5,0c-2,0.1-4.7,0.7-5.7,2.7
			c-0.4,0.8-0.2,1.9,0.6,2.2c0.6,0.2,1.2,0,1.6-0.5c0.4-0.4,0.6-1,0.7-1.6c0.6-2.7,0.1-5.5-1-8c-1.2-2.5-2.9-4.7-4.8-6.6
			C111.2,34.4,107.7,31.7,104.1,29z"/>
		<g>
			<g>
				<path class="st1" d="M73.8,146.8l-0.1,0.1c-0.9,0-1.4,0.2-1.5,0.7c-0.1,0.3-0.1,0.8-0.1,1.7c0,0.6,0,1.6,0,2.8v3.4
					c0,2.2-0.4,3.7-1.3,4.7c-1.1,1.2-2.8,1.9-4.9,1.9c-1.9,0-3.4-0.3-4.5-1c-0.9-0.5-1.5-1.3-1.8-2.3c-0.2-0.6-0.3-2.3-0.3-5v-2.8
					c0-1.7,0-2.9-0.1-3.4c0-0.2-0.2-0.4-0.4-0.4c-0.1,0-0.5-0.1-1.3-0.1l-0.1-0.1v-0.7l0.1-0.1c0.7,0,1.8,0.1,3.4,0.1
					c1.6,0,2.7,0,3.4-0.1l0.1,0.1v0.7l-0.1,0.1c-0.7,0-1.2,0.1-1.3,0.1c-0.2,0.1-0.3,0.2-0.4,0.4c-0.1,0.5-0.1,1.7-0.1,3.4v2.3
					c0,2.8,0.1,4.5,0.4,5.1c0.5,1.2,1.7,1.9,3.7,1.9c1.3,0,2.3-0.3,3-0.9c0.3-0.3,0.6-0.6,0.7-0.9c0.1-0.3,0.2-0.8,0.3-1.4
					c0.1-0.6,0.1-1.2,0.1-1.8v-2.3c0-1.9,0-3.2,0-3.9c0-0.7-0.1-1.1-0.1-1.3c-0.1-0.1-0.2-0.3-0.4-0.3c-0.2-0.1-0.6-0.1-1.4-0.2
					l-0.1-0.1v-0.7l0.1-0.1c0.6,0,1.3,0.1,2,0.1c0.5,0,1.5,0,2.9-0.1l0.1,0.1V146.8z"/>
				<path class="st1" d="M88.9,161.5l-0.1,0.1c-0.5,0-1.1,0-1.8,0c-0.7,0-1.3,0-1.9,0c-0.4-0.8-1.4-2-3-3.7
					c-0.8-0.9-1.4-1.5-1.6-1.6l0.1,3.8c0,0.3,0.1,0.5,0.2,0.5c0.2,0.1,0.6,0.1,1.3,0.2l0.1,0.1v0.7l-0.1,0.1c-0.7-0.1-1.7-0.1-3-0.1
					c-1.3,0-2.3,0-3,0.1l-0.1-0.1v-0.7l0.1-0.1c0.7,0,1.1-0.1,1.3-0.2c0.1-0.1,0.2-0.2,0.2-0.5c0.1-1,0.1-2.6,0.1-5v-3.7
					c0-1.5,0-2.8-0.1-3.8c0-0.3-0.1-0.5-0.2-0.5c-0.1-0.1-0.6-0.1-1.3-0.2l-0.1-0.1v-0.6l0.1-0.1c1.4-0.2,2.8-0.5,4.3-0.9l0.2,0.1
					c0,0.2,0,0.6,0,1.1c-0.1,1.8-0.1,3.7-0.1,5.8v3.6l1.1-0.9c0.5-0.4,1.1-1,2-2l1.1-1.2c0.2-0.2,0.4-0.4,0.5-0.6c0.6,0,1.1,0,1.5,0
					c0.5,0,0.9,0,1.3,0l0.1,0.1v0.7l-0.1,0.1l-0.8,0c-0.3,0-0.7,0.1-1,0.4c-0.1,0.1-0.4,0.3-0.8,0.7l-0.9,0.8l-0.3,0.3l-0.9,0.8
					l2.4,2.8c1.5,1.8,2.4,2.7,2.7,2.8c0.2,0.1,0.3,0.1,0.5,0.1l0.1,0.1V161.5z"/>
				<path class="st1" d="M98.8,150.9l-0.1,2c0,0.3,0,0.7,0,1.1l-0.5,0.1c-0.3-0.5-0.8-0.8-1.4-0.8c-0.6,0-1,0.2-1.4,0.7
					c-0.2,0.3-0.3,0.7-0.3,1.2v2.6c0,0.5,0,1.3,0.1,2.2c0,0.3,0.1,0.4,0.2,0.5c0.1,0.1,0.7,0.1,1.5,0.2l0.1,0.1v0.7l-0.1,0.1
					c-1.1,0-2.2-0.1-3.2-0.1c-1.3,0-2.3,0-3,0.1l-0.1-0.1v-0.7l0.1-0.1c0.7,0,1.1-0.1,1.3-0.2c0.1-0.1,0.2-0.2,0.2-0.5
					c0.1-1,0.1-2,0.1-3.1v-1.6c0-1.5-0.1-2.3-0.2-2.5c-0.1-0.1-0.2-0.2-0.5-0.3c-0.1,0-0.4,0-1-0.1l-0.1-0.1v-0.6l0.1-0.1
					c1.3-0.1,2.7-0.4,4.2-0.9l0.2,0.1l0,2.2c0.5-0.5,1-1.1,1.7-1.9c0.3-0.3,0.7-0.4,1.2-0.4C98.3,150.7,98.6,150.8,98.8,150.9z"/>
				<path class="st1" d="M112.4,156.4c0,1.2-0.3,2.3-1,3.2c-0.6,0.8-1.4,1.4-2.4,1.8c-0.9,0.4-2,0.6-3.2,0.6c-1.5,0-3.1-0.4-4.5-1.1
					l-0.1-0.2c0.2-0.8,0.3-2,0.3-3.6l0.1-0.1h0.7l0.1,0.1v0.3c0,0.4,0,1,0.1,1.6c0.3,0.5,0.7,0.9,1.4,1.2c0.7,0.4,1.5,0.5,2.2,0.5
					c1.5,0,2.5-0.5,3-1.5c0.3-0.5,0.4-1.1,0.4-1.6c0-0.9-0.4-1.6-1.2-2c-0.4-0.2-1-0.4-1.9-0.5c-2-0.3-3.3-0.7-3.9-1.1
					c-0.9-0.7-1.4-1.8-1.4-3.2c0-1.5,0.5-2.7,1.5-3.6c1.1-0.9,2.6-1.4,4.5-1.4c1.7,0,3.1,0.3,4.2,0.8l0.1,0.3
					c-0.2,0.9-0.3,1.9-0.3,3.2l-0.1,0.1h-0.7l-0.1-0.1c0-0.9-0.1-1.5-0.1-1.7c-0.2-0.3-0.6-0.6-1.2-0.9c-0.6-0.3-1.2-0.4-1.9-0.4
					c-1,0-1.8,0.3-2.3,0.8c-0.5,0.5-0.8,1.1-0.8,1.9c0,0.8,0.3,1.5,0.9,1.9c0.4,0.3,1.3,0.5,2.8,0.7c0.2,0,0.6,0.1,1.3,0.2
					c0.4,0.1,0.8,0.2,1.2,0.3c0.7,0.3,1.3,0.7,1.7,1.3C112.2,154.7,112.4,155.5,112.4,156.4z"/>
				<path class="st1" d="M125.2,161.4l-0.1,0.1c-0.6,0-1.3-0.1-2.1-0.1c-0.6,0-1.2,0-1.8,0.1l-0.1-0.1l0.1-1.5l-2.1,1.6
					c-0.2,0.1-0.4,0.2-0.7,0.2c-0.1,0-0.3,0-0.4,0c-0.8,0-1.4-0.2-1.9-0.7c-0.4-0.5-0.7-1.2-0.7-2c0-1.1,0.4-2,1.1-2.4
					c0.8-0.5,2.4-1,4.8-1.4c0-1.2-0.3-2-0.9-2.3c-0.4-0.2-0.8-0.4-1.3-0.4c-0.6,0-1,0.1-1.4,0.4l-0.4,1L117,154l-0.6-0.1l-0.1-0.2
					l0.1-1.3c1.2-0.9,2.1-1.4,2.7-1.5c0.3-0.1,0.6-0.1,1-0.1c1.4,0,2.5,0.4,3.1,1.1c0.4,0.6,0.7,1.4,0.7,2.5c0,0.3,0,0.7,0,1.3
					c0,1-0.1,1.7-0.1,2.1c0,1.1,0,1.8,0.1,2.1c0,0.3,0.1,0.5,0.3,0.6c0.1,0.1,0.5,0.1,1,0.1l0.1,0.1V161.4z M121.2,158.9v-2.7
					c-1.2,0.3-2,0.6-2.5,0.9c-0.4,0.3-0.6,0.8-0.6,1.4c0,1,0.4,1.5,1.3,1.5C120.1,159.9,120.7,159.6,121.2,158.9z"/>
				<path class="st1" d="M139.9,161.5l-0.1,0.1c-0.7-0.1-1.4-0.1-2-0.1c-0.6,0-1.3,0-2.2,0.1l-0.1-0.1c0-0.4,0-1,0-1.8
					c-0.3,0.2-0.6,0.6-1.1,1c-0.6,0.6-1,0.9-1.2,1c-0.2,0.1-0.6,0.2-1.1,0.2c-1.3,0-2.3-0.5-3-1.4c-0.8-0.9-1.2-2.2-1.2-3.7
					c0-1.5,0.3-2.6,0.9-3.4c0.2-0.2,0.6-0.6,1.4-1.1c0.9-0.6,1.5-1,1.9-1.2c0.4-0.1,0.8-0.2,1.3-0.2c0.8,0,1.5,0.2,2.1,0.5v-0.6
					c0-1.9,0-3.1-0.1-3.4c-0.1-0.2-0.2-0.3-0.5-0.4c-0.1,0-0.5,0-1-0.1l-0.1-0.1v-0.6l0.1-0.1c1.4-0.1,2.8-0.5,4.3-0.9l0.2,0.1
					c0,0,0,0.4,0,1.1c-0.1,1.6-0.1,4-0.1,7.1v3.6c0,2.1,0,3.2,0.1,3.4c0.1,0.1,0.1,0.2,0.2,0.2c0.2,0.1,0.5,0.1,1.1,0.1l0.1,0.1
					V161.5z M135.5,155.7v-2.1c-0.5-0.6-1-1-1.5-1.2c-0.3-0.1-0.7-0.2-1.1-0.2c-1,0-1.7,0.5-2,1.6c-0.2,0.6-0.2,1.2-0.2,1.9
					c0,1.5,0.4,2.7,1.1,3.4c0.4,0.4,0.9,0.6,1.5,0.6c0.5,0,1-0.2,1.5-0.5c0.4-0.3,0.6-0.6,0.7-0.9
					C135.5,158.2,135.5,157.3,135.5,155.7z"/>
			</g>
		</g>
	</g>
</g>
<line class="st6" x1="-304.8" y1="126" x2="-235.8" y2="126"/>
</svg>
