<?xml version="1.0" encoding="utf-8"?>
<!-- Generator: Adobe Illustrator 26.2.1, SVG Export Plug-In . SVG Version: 6.00 Build 0)  -->
<svg version="1.1" id="Layer_1" xmlns="http://www.w3.org/2000/svg" xmlns:xlink="http://www.w3.org/1999/xlink" x="0px" y="0px"
	 viewBox="0 0 100 100" style="enable-background:new 0 0 100 100;" xml:space="preserve">
<style type="text/css">
	.st0{fill:#FFFFFF;}
</style>
<g id="XMLID_00000008846486464490668890000011742890169721880198_">
	<path id="XMLID_00000091004644607333277140000007851687206624474023_" class="st0" d="M50,29.5c-11.3,0-20.5,9.2-20.5,20.5
		c0,2.9,0.6,5.7,1.8,8.3l-1.7,10c-0.1,0.6,0.1,1.2,0.5,1.6c0.4,0.4,0.8,0.5,1.3,0.5c0.1,0,0.2,0,0.3,0l10-1.7
		c2.6,1.2,5.4,1.8,8.3,1.8c11.3,0,20.5-9.2,20.5-20.5S61.3,29.5,50,29.5z M60,56.2H40.1c-1,0-1.9-0.8-1.9-1.9s0.8-1.9,1.9-1.9H60
		c1,0,1.9,0.8,1.9,1.9S61,56.2,60,56.2z M60,47.5H40.1c-1,0-1.9-0.8-1.9-1.9s0.8-1.9,1.9-1.9H60c1,0,1.9,0.8,1.9,1.9
		S61,47.5,60,47.5z"/>
</g>
</svg>
