<?xml version="1.0" encoding="utf-8"?>
<!-- Generator: Adobe Illustrator 26.2.1, SVG Export Plug-In . SVG Version: 6.00 Build 0)  -->
<svg version="1.1" id="Layer_1" xmlns="http://www.w3.org/2000/svg" xmlns:xlink="http://www.w3.org/1999/xlink" x="0px" y="0px"
	 viewBox="0 0 100 100" style="enable-background:new 0 0 100 100;" xml:space="preserve">
<style type="text/css">
	.st0{fill:#FFFFFF;}
</style>
<g id="_xD83D__xDD0D_-Product-Icons">
	<g id="ic_fluent_recommended_24_filled">
		<path id="_xD83C__xDFA8_-Color" class="st0" d="M60.9,60.9l0,10.4c0,1.2-1.2,2-2.3,1.5l-8.6-4l-8.6,4c-1.1,0.5-2.3-0.3-2.3-1.5
			l0-10.4C42.2,63,46,64.2,50,64.2C54,64.2,57.8,63,60.9,60.9z M50,27.1c9.6,0,17.4,7.8,17.4,17.4S59.6,62,50,62
			s-17.4-7.8-17.4-17.4S40.4,27.1,50,27.1z M49.6,37.1l-0.1,0.1l-2,4l-4.5,0.6c-0.4,0.1-0.6,0.5-0.4,0.8l0.1,0.1L46,46l-0.8,4.4
			c-0.1,0.4,0.3,0.7,0.7,0.6L46,51l4-2.1l4,2.1c0.4,0.2,0.8-0.1,0.8-0.4l0-0.1L54,46l3.2-3.1c0.3-0.3,0.2-0.8-0.2-0.9l-0.1,0
			l-4.5-0.6l-2-4c-0.2-0.3-0.6-0.4-0.8-0.2L49.6,37.1L49.6,37.1z"/>
	</g>
</g>
</svg>
