<?xml version="1.0" encoding="utf-8"?>
<!-- Generator: Adobe Illustrator 26.2.1, SVG Export Plug-In . SVG Version: 6.00 Build 0)  -->
<svg version="1.1" id="Layer_1" xmlns="http://www.w3.org/2000/svg" xmlns:xlink="http://www.w3.org/1999/xlink" x="0px" y="0px"
	 viewBox="0 0 100 100" style="enable-background:new 0 0 100 100;" xml:space="preserve">
<style type="text/css">
	.st0{fill:#FFFFFF;}
</style>
<g>
	<path class="st0" d="M49.4,52.4v2c0,0.7-0.4,1.3-1,1.6c-0.7,0.4-1.5,0.2-2.1-0.3L45,54.4l-1.2,1.2l3,3c0.3,0.3,0.5,0.8,0.5,1.3
		v13.3c0,0.9,0.7,1.6,1.6,1.6h2.6c0.9,0,1.6-0.7,1.6-1.6V61.9c0-0.5,0.2-0.9,0.5-1.3l2.5-2.5L55,56.9l-0.8,0.8
		c-0.6,0.6-1.4,0.7-2.1,0.3c-0.6-0.3-1-1-1-1.6v-4L49.4,52.4L49.4,52.4z"/>
	<path class="st0" d="M73.5,45.6c0-5.8-4.5-10.6-10.2-11c-2-5.6-7.3-9.4-13.3-9.4s-11.3,3.8-13.3,9.4c-5.7,0.4-10.2,5.2-10.2,11
		c0,3,1.2,5.7,3.2,7.8c-0.1,0.5-0.1,1-0.1,1.6c0,5.3,4.3,9.7,9.7,9.7h5.7v-4.5l-3.3-3.3c-0.3-0.3-0.5-0.8-0.5-1.3s0.2-0.9,0.5-1.3
		l2-2c0.7-0.7,1.8-0.7,2.5,0l0.8,0.8v-1.3c0-1,0.8-1.8,1.8-1.8h2.8c1,0,1.8,0.8,1.8,1.8v3.3l0.3-0.3c0.3-0.3,0.8-0.5,1.3-0.5
		c0.5,0,0.9,0.2,1.3,0.5l2,2c0,0,0,0,0,0c0.7,0.7,0.7,1.8,0,2.5l-2.7,2.7v2.5h5.2c5.3,0,9.7-4.3,9.7-9.7c0-0.5,0-1-0.1-1.6
		C72.3,51.4,73.5,48.6,73.5,45.6z"/>
</g>
</svg>
